<svg id="svg1" width="96" height="32" version="1.1" viewBox="0 0 25.4 8.47" xmlns="http://www.w3.org/2000/svg">
 <g id="layer1">
  <path id="text5" d="m3.56 2.02q0.5 0 0.845 0.151 0.347 0.149 0.521 0.427 0.174 0.275 0.174 0.654 0 0.286-0.101 0.616-0.101 0.33-0.301 0.689-0.292 0.527-0.721 1.04-0.429 0.509-0.92 0.876-0.261 0.193-0.519 0.307-0.258 0.113-0.462 0.113-0.269 0-0.387-0.204-0.0609-0.0862-0.113-0.267-0.0504-0.179-0.0504-0.315 0-0.0357 0.0042-0.063 0.0126-0.0841 0.0588-0.0841 0.0231 0 0.0799 0.0294 0.0609 0.0294 0.0946 0.0357 0.111 0.021 0.227 0.021 0.393 0 0.796-0.225 0.406-0.225 0.744-0.637 0.34-0.414 0.544-0.958 0.128-0.343 0.128-0.658 0-0.282-0.101-0.498-0.0988-0.219-0.275-0.338-0.174-0.122-0.397-0.122-0.208 0-0.437 0.113-0.227 0.113-0.454 0.345 0.103-0.0063 0.282-0.0231 0.0862-0.00841 0.16-0.00841 0.258 0 0.372 0.0862 0.116 0.0841 0.116 0.237 0 0.179-0.122 0.408-0.122 0.229-0.326 0.534-0.0904 0.134-0.181 0.286-0.0904 0.149-0.174 0.317-0.082 0.168-0.134 0.33-0.0525 0.16-0.0525 0.301 0 0.0988 0.0315 0.172 0.0126 0.021 0.0126 0.0378 0 0.042-0.0651 0.042-0.185 0-0.315-0.0315-0.128-0.0336-0.206-0.0946-0.0778-0.0609-0.113-0.143-0.0336-0.082-0.0336-0.185 0-0.187 0.116-0.475 0.0336-0.0862 0.124-0.248 0.0925-0.162 0.254-0.439 0.12-0.204 0.172-0.296 0.105-0.174 0.105-0.292 0-0.191-0.277-0.191h-0.0294q-0.231 0.284-0.443 0.614-0.0883 0.139-0.149 0.307-0.0588 0.166-0.0588 0.294v0.0273q0.0021 0.0378 0.0273 0.111 0.021 0.0609 0.021 0.0862 0 0.0294-0.0252 0.0462-0.0231 0.0147-0.082 0.0168h-0.0168q-0.29 0-0.496-0.185-0.193-0.147-0.193-0.391 0-0.168 0.0904-0.368 0.0904-0.202 0.254-0.418-0.458 0.0609-0.689 0.0609-0.0483 0-0.0904-0.0021-0.364-0.0252-0.364-0.338 0-0.0315 0.0042-0.0651 0.0063-0.0672 0.0441-0.202 0.0399-0.137 0.0757-0.177 0.0189-0.021 0.0378-0.021 0.021 0 0.0336 0.0336 0.0862 0.29 1.26 0.29h0.0588q0.303-0.296 0.666-0.544 0.364-0.25 0.717-0.397 0.353-0.147 0.622-0.147zm6.34 2.16q0.109 0.177 0.109 0.397 0 0.282-0.158 0.582-0.158 0.301-0.376 0.538-0.292 0.317-0.717 0.574-0.425 0.258-0.899 0.42t-0.92 0.208q-0.162 0.0189-0.319 0.0189-0.509 0-0.899-0.181-0.391-0.179-0.603-0.467-0.212-0.286-0.212-0.576 0-0.162 0.0651-0.305 0.0567-0.128 0.185-0.185 0.128-0.0567 0.296-0.0567 0.116 0 0.233 0.0231 0.12 0.021 0.219 0.0567 0.0546 0.0189 0.0841 0.0462 0.0294 0.0252 0.0294 0.0483t-0.0252 0.042q-0.0252 0.0168-0.0757 0.0252-0.0967 0.0147-0.156 0.063-0.0588 0.0483-0.0799 0.139-0.0252 0.0925-0.0252 0.174 0 0.233 0.177 0.38 0.177 0.149 0.439 0.214 0.265 0.0672 0.536 0.0672 0.147 0 0.267-0.0189 0.628-0.0946 1.05-0.332 0.425-0.235 0.626-0.536 0.204-0.301 0.204-0.597 0-0.143-0.0483-0.269-0.0778-0.2-0.233-0.294-0.156-0.0967-0.355-0.0967-0.235 0-0.475 0.122-0.24 0.12-0.395 0.324-0.156 0.202-0.156 0.429 0 0.235 0.177 0.452 0.0441 0.0504 0.0441 0.107 0 0.0462-0.0378 0.082-0.0357 0.0336-0.111 0.0462-0.0294 0.0042-0.0672 0.0042-0.187 0-0.49-0.0757-0.431-0.109-0.431-0.548 0-0.195 0.0841-0.448 0.0841-0.252 0.208-0.496 0.126-0.244 0.271-0.479 0.147-0.235 0.273-0.418 0.128-0.183 0.265-0.37 0.00841-0.0105 0.0231-0.0315 0.082-0.113 0.113-0.166 0.0315-0.0546 0.0462-0.12-0.277 0.126-0.532 0.399-0.366 0.397-0.685 0.895-0.0883 0.139-0.149 0.307-0.0588 0.166-0.0588 0.294v0.0273q0.0021 0.0378 0.0273 0.111 0.021 0.0609 0.021 0.0862 0 0.0294-0.0252 0.0462-0.0231 0.0147-0.082 0.0168h-0.0168q-0.29 0-0.496-0.183-0.223-0.17-0.223-0.427 0-0.309 0.309-0.687 0.309-0.38 0.807-0.727 0.498-0.347 1.05-0.576 0.555-0.229 1.02-0.258 0.0567-0.0042 0.111-0.0042 0.307 0 0.523 0.103 0.219 0.101 0.328 0.277 0.111 0.177 0.111 0.395 0 0.254-0.149 0.521-0.147 0.267-0.435 0.494 0.563 0.0105 0.784 0.37zm-1.39-0.609q0.174-0.233 0.174-0.458 0-0.147-0.0757-0.265-0.0757-0.118-0.212-0.183-0.134-0.0651-0.305-0.0651-0.13 0-0.269 0.0399 0.34 0.118 0.34 0.359 0 0.116-0.0609 0.244-0.0609 0.128-0.183 0.324-0.021 0.0357-0.0315 0.0525-0.195 0.315-0.317 0.563 0.271-0.0715 0.525-0.235 0.256-0.164 0.414-0.376zm2.3 0.515q-0.063 0-0.0967-0.0336-0.0315-0.0357-0.0315-0.0883 0-0.0757 0.0546-0.137 0.0567-0.063 0.143-0.063h0.479q0.063 0 0.0967 0.0357 0.0336 0.0336 0.0336 0.0883 0 0.0736-0.0567 0.137-0.0546 0.0609-0.141 0.0609zm7.62-1.94q0.235 0.145 0.235 0.41 0 0.134-0.0546 0.296-0.0546 0.16-0.149 0.338-0.0946 0.177-0.206 0.351-0.109 0.174-0.288 0.446-0.162 0.248-0.242 0.372-0.227 0.359-0.334 0.67-0.105 0.309-0.105 0.523 0 0.139 0.0399 0.214 0.0105 0.021 0.0105 0.0357 0 0.0441-0.0652 0.0441-0.525 0-0.935-0.33t-0.658-0.874q-0.515 0.5-1.12 0.952-0.599 0.452-1.21 0.784-0.204 0.103-0.401 0.16-0.195 0.0588-0.357 0.0588-0.153 0-0.261-0.0588-0.107-0.0567-0.151-0.177-0.0273-0.0588-0.0462-0.164-0.0168-0.105-0.0168-0.21 0-0.118 0.0231-0.187 0.021-0.0609 0.0525-0.0609 0.021 0 0.0694 0.0336 0.0462 0.0357 0.0736 0.0441 0.158 0.0546 0.34 0.0546 0.113 0 0.235-0.021-0.183-0.166-0.183-0.378 0-0.187 0.151-0.456 0.216-0.374 0.477-0.759 0.221-0.334 0.359-0.557 0.139-0.225 0.248-0.446 0.063-0.126 0.0925-0.227 0.0315-0.101 0.0315-0.174 0-0.082-0.0378-0.124-0.0357-0.0441-0.103-0.0441-0.0841 0-0.202 0.0672-0.116 0.0672-0.244 0.195-0.454 0.45-0.841 1.05-0.0904 0.141-0.151 0.307-0.0588 0.166-0.0588 0.301v0.021q0.0021 0.0378 0.0273 0.113 0.021 0.0609 0.021 0.0841 0 0.0294-0.0231 0.0462-0.0231 0.0147-0.082 0.0168h-0.0189q-0.145 0-0.273-0.0462-0.128-0.0483-0.221-0.137-0.183-0.139-0.183-0.366 0-0.244 0.198-0.553t0.521-0.62q0.324-0.313 0.698-0.574 0.374-0.263 0.719-0.418 0.345-0.158 0.574-0.158h0.0042q0.263 0.0021 0.412 0.16 0.151 0.158 0.151 0.387 0 0.227-0.139 0.454-0.0652 0.109-0.29 0.45-0.235 0.355-0.408 0.626-0.172 0.271-0.347 0.576-0.172 0.303-0.294 0.578-0.122 0.275-0.149 0.469 0.349-0.143 0.723-0.403 0.376-0.263 0.731-0.593t0.672-0.693q-0.0862-0.372-0.0862-0.752 0-0.0967 0.0063-0.193 0.0231-0.355 0.164-0.599 0.143-0.244 0.351-0.361 0.21-0.118 0.435-0.118 0.183 0 0.338 0.0778 0.156 0.0757 0.25 0.223 0.0946 0.147 0.0946 0.345 0 0.311-0.24 0.683-0.149 0.233-0.355 0.49t-0.458 0.521q0.177 0.551 0.435 0.551 0.107 0 0.227-0.0925 0.122-0.0925 0.254-0.265 0.132-0.174 0.277-0.425 0.336-0.591 0.525-1 0.191-0.414 0.191-0.702 0-0.0609-0.0105-0.111-0.0063-0.0378-0.042-0.107-0.0315-0.0651-0.0315-0.0904 0-0.0525 0.0967-0.0672 0.0652-0.0105 0.128-0.0105 0.231 0 0.406 0.124zm-2.65 1.17q0.0042 0.172 0.021 0.322 0.103-0.132 0.195-0.258 0.151-0.198 0.151-0.372 0-0.0925-0.0441-0.149-0.042-0.0588-0.103-0.0588-0.0567 0-0.107 0.0504-0.0504 0.0504-0.082 0.156-0.0315 0.105-0.0315 0.263zm4.74 0.971q0.0336-0.0609 0.0862-0.0925 0.0525-0.0315 0.109-0.0315 0.0694 0 0.118 0.0462 0.0504 0.0441 0.0504 0.12 0 0.0715-0.0504 0.156-0.204 0.33-0.387 0.57-0.605 0.799-1.48 0.799-0.28 0-0.494-0.137-0.214-0.139-0.332-0.368-0.116-0.231-0.116-0.5 0-0.141 0.0336-0.282 0.0883-0.361 0.345-0.696 0.256-0.336 0.605-0.544 0.351-0.208 0.706-0.208 0.288 0 0.433 0.137 0.145 0.134 0.145 0.355 0 0.242-0.162 0.517-0.16 0.273-0.448 0.496-0.288 0.221-0.654 0.309 0.164 0.12 0.401 0.12 0.227 0 0.46-0.118 0.233-0.12 0.418-0.355 0.13-0.166 0.208-0.292zm-1.66 0.427q0.242-0.0736 0.406-0.202 0.166-0.13 0.244-0.273 0.0799-0.145 0.0799-0.267 0-0.0904-0.042-0.145-0.042-0.0546-0.12-0.0546-0.145 0-0.347 0.198-0.244 0.311-0.244 0.586 0 0.0841 0.0231 0.158zm4.17-0.427q0.0336-0.0609 0.0862-0.0925 0.0525-0.0315 0.109-0.0315 0.0694 0 0.12 0.0462 0.0504 0.0441 0.0504 0.118 0 0.0736-0.0525 0.158-0.237 0.391-0.483 0.696-0.246 0.303-0.496 0.488-0.25 0.183-0.477 0.185h-0.0063q-0.174 0-0.336-0.103-0.162-0.105-0.242-0.315-0.128 0.206-0.284 0.311-0.153 0.103-0.305 0.103h-0.0147q-0.25-0.0105-0.37-0.162-0.12-0.151-0.12-0.406 0-0.296 0.145-0.67 0.143-0.374 0.382-0.717 0.242-0.345 0.523-0.559 0.282-0.216 0.542-0.216 0.208 0 0.414 0.183 0.063-0.0841 0.172-0.132 0.109-0.0504 0.223-0.0504 0.137 0 0.227 0.0799 0.0925 0.0778 0.0925 0.235 0 0.153-0.103 0.378-0.101 0.223-0.324 0.519-0.233 0.309-0.322 0.481-0.0588 0.109-0.0588 0.179 0 0.0462 0.0252 0.0694t0.0694 0.0231q0.0588 0 0.134-0.0378 0.0756-0.0378 0.149-0.105 0.311-0.311 0.527-0.654zm-1.17-0.0778q0.137-0.248 0.137-0.391 0-0.0609-0.0252-0.0904-0.0252-0.0315-0.0694-0.0315-0.0672 0-0.164 0.0672-0.0946 0.0672-0.195 0.193-0.116 0.141-0.202 0.282-0.0862 0.141-0.204 0.359-0.0063 0.0105-0.0084 0.0168-0.105 0.191-0.105 0.309 0 0.063 0.0294 0.0967 0.0315 0.0315 0.0862 0.0315 0.0967 0 0.227-0.101 0.13-0.101 0.229-0.273 0.0441-0.0778 0.132-0.233 0.0883-0.158 0.132-0.235zm2.05-0.361q0.0168-0.0336 0.0168-0.0672 0-0.0483-0.0294-0.0799-0.0294-0.0336-0.0694-0.0336-0.063 0-0.103 0.0778-0.2 0.395-0.408 0.738-0.0672 0.107-0.177 0.107-0.0736 0-0.128-0.0504-0.0546-0.0525-0.0546-0.126 0-0.063 0.0441-0.126 0.13-0.202 0.219-0.42 0.0904-0.219 0.0904-0.416 0-0.28-0.2-0.448-0.0336-0.0336-0.0336-0.0736 0-0.063 0.0714-0.122 0.0736-0.0609 0.141-0.0841 0.0988-0.0336 0.2-0.0336 0.122 0 0.225 0.0462 0.105 0.0462 0.166 0.124 0.0609 0.0757 0.0609 0.166 0 0.0273-0.0063 0.0567 0.0967-0.0252 0.193-0.0252 0.227 0 0.401 0.126 0.258 0.185 0.258 0.443 0 0.183-0.105 0.374-0.105 0.189-0.303 0.46-0.145 0.189-0.231 0.347-0.0588 0.107-0.0588 0.179 0 0.0462 0.0252 0.0694t0.0714 0.0231q0.0567 0 0.132-0.0378 0.0778-0.0378 0.151-0.105 0.317-0.322 0.527-0.654 0.0336-0.0609 0.0862-0.0925 0.0525-0.0315 0.109-0.0315 0.0694 0 0.12 0.0462 0.0504 0.0441 0.0504 0.118 0 0.0736-0.0525 0.158-0.237 0.391-0.483 0.696-0.246 0.303-0.496 0.488-0.25 0.183-0.477 0.185h-0.0105q-0.273 0-0.397-0.132-0.122-0.134-0.122-0.355 0-0.13 0.0378-0.275 0.0399-0.145 0.103-0.282z" stroke-width=".265" aria-label="DB-Wear"/>
 </g>
</svg>
